<svg xmlns="http://www.w3.org/2000/svg" viewBox="0 0 24 24" fill="none" stroke="#FFFFFFE6" stroke-width="1.5" stroke-linecap="round" stroke-linejoin="round"> <!-- Interior wash --> <path d="M8 6L12 3L16 6L18 10L20 12L18 16V20L15 22L12 20L9 22L6 20V16L4 12L6 10Z" fill="#FFFFFFE6" opacity="0.10" stroke="none" /> <path d="M8 6L12 3L16 6" /><path d="M16 6L18 10L20 12L18 16V20L15 22" /><path d="M8 6L6 10L4 12L6 16V20L9 22" /><path d="M18 16L12 20L6 16" /><path d="M12 12L14 16M12 12L10 16" /><path d="M10 10A1 1 0 1 1 10.01 10M14 10A1 1 0 1 1 14.01 10" /> <!-- Brand accent --> <g stroke="#4169E1" stroke-width="1.5" opacity="0.12"><path d="M8 6L12 3L16 6" /> <path d="M16 6L18 10L20 12L18 16V20L15 22" /> <path d="M8 6L6 10L4 12L6 16V20L9 22" /> <path d="M18 16L12 20L6 16" /></g></svg>
