<svg xmlns="http://www.w3.org/2000/svg" viewBox="0 0 24 24" fill="none" stroke="#FFFFFFE6" stroke-width="1.5" stroke-linecap="round" stroke-linejoin="round"><path d="M12 21 L12 6" fill="#C08040" fill-opacity="0.14" stroke="none"/><path d="M2 15 L22 15"/><path d="M4 18 L20 18"/><path d="M2 12 L22 12"/><path d="M4 9 L20 9"/><path d="M8 6 L16 6"/><path d="M10 3 L14 3"/><path d="M12 6 L12 21"/><path d="M2 15 C2 12 4 13 5 15 C6 13 8 12 8 15" fill="#C08040" fill-opacity="0.12" stroke="none"/><path d="M16 15 C16 12 18 13 19 15 C20 13 22 12 22 15" fill="#C08040" fill-opacity="0.10" stroke="none"/></svg>