<svg xmlns="http://www.w3.org/2000/svg" viewBox="0 0 24 24" fill="none" stroke="#FFFFFFE6" stroke-width="1.5" stroke-linecap="round" stroke-linejoin="round"><path d="M12 2 L13 5 L14 5 L15 7 L13 7 L13 10 L18 10 L18 20 L6 20 L6 10 L11 10 L11 7 L9 7 L10 5 L11 5 Z M11 10 L11 7 M13 10 L13 7 M9 14 L9 20 M15 14 L15 20" fill="#2196F3" fill-opacity="0.14" stroke="none"/><path d="M12 2 L13 5 L14 5 L15 7 L13 7 L13 10 L18 10 L18 20 L6 20 L6 10 L11 10 L11 7 L9 7 L10 5 L11 5 Z M11 10 L11 7 M13 10 L13 7 M9 14 L9 20 M15 14 L15 20"/></svg>